# xmcd
#
# Track frame offsets:
#	150
#	16050
#	34200
#	54150
#	76875
#	97050
#	115200
#	133050
#	144975
#	160125
#	177075
#
# Disc length: 2535 seconds
#
# Revision: 0
# Processed by: cddbd v1.5.2PL0 Copyright (c) Steve Scherf et al.
# Submitted via: audiograbber 1.83.01
#
DISCID=8409e50b
DTITLE=Oshio Kotaro - Be Happy
DYEAR=2004
DGENRE=Instrumental
TTITLE0=Wings~You Are The Hero~
TTITLE1=Misty Night
TTITLE2=Angel's Sunday
TTITLE3=Jupiter
TTITLE4=Dear...
TTITLE5=Aquamarine
TTITLE6=Look Up At The Evening Stars
TTITLE7=Fight!
TTITLE8=Busy Busy
TTITLE9=Cherry Blossom Time
TTITLE10=The Park On The Hill
EXTD=YEAR: 2004
EXTT0=
EXTT1=
EXTT2=
EXTT3=
EXTT4=
EXTT5=
EXTT6=
EXTT7=
EXTT8=
EXTT9=
EXTT10=
PLAYORDER=
